<?xml version="1.0" encoding="UTF-8" standalone="no"?>
<svg
   xmlns:dc="http://purl.org/dc/elements/1.1/"
   xmlns:cc="http://creativecommons.org/ns#"
   xmlns:rdf="http://www.w3.org/1999/02/22-rdf-syntax-ns#"
   xmlns:svg="http://www.w3.org/2000/svg"
   xmlns="http://www.w3.org/2000/svg"
   viewBox="0 0 576 386.55997"
   height="386.55997"
   width="576"
   xml:space="preserve"
   id="svg2"
   version="1.1"><metadata
     id="metadata8"><rdf:RDF><cc:Work
         rdf:about=""><dc:format>image/svg+xml</dc:format><dc:type
           rdf:resource="http://purl.org/dc/dcmitype/StillImage" /><dc:title></dc:title></cc:Work></rdf:RDF></metadata><defs
     id="defs6"><clipPath
       id="clipPath18"
       clipPathUnits="userSpaceOnUse"><path
         style="clip-rule:evenodd"
         id="path16"
         d="M 0,0 H 1800 V 1206.9883 H 0 Z" /></clipPath><clipPath
       id="clipPath32"
       clipPathUnits="userSpaceOnUse"><path
         style="clip-rule:evenodd"
         id="path30"
         d="M 0,0 H 1800 V 1200.9983 H 0 Z" /></clipPath></defs><g
     transform="matrix(0.31999998,0,0,0.31999998,0,6.330666e-6)"
     id="g10"><g
       id="g12"><g
         clip-path="url(#clipPath18)"
         id="g14"><g
           transform="scale(2.9950082)"
           id="g20"><path
             id="path22"
             style="fill:#ffffff;fill-opacity:1;fill-rule:nonzero;stroke:none"
             d="M 0,0 H 601 V 403 H 0 Z" /><path
             id="path24"
             style="fill:#ffffff;fill-opacity:1;fill-rule:nonzero;stroke:none"
             d="M 0,0 H 601 V 401 H 0 Z" /></g></g></g><g
       id="g26"><g
         clip-path="url(#clipPath32)"
         id="g28"><g
           transform="scale(2.9950082)"
           id="g34"><path
             id="path36"
             style="fill:#666666;fill-opacity:1;fill-rule:nonzero;stroke:none"
             d="m 230,14 h 6 v 2 h -6 z m 12,0 h 6 v 2 h -6 z m 12,0 h 6 v 2 h -6 z m 12,0 h 6 v 2 h -6 z m 12,0 h 6 v 2 h -6 z m 12,0 h 6 v 2 h -6 z m 12,0 h 6 v 2 h -6 z m 12,0 h 6 v 2 h -6 z m 12,0 h 6 v 2 h -6 z m 12,0 h 6 v 2 h -6 z m 12,0 h 6 v 2 h -6 z m 12,0 h 6 v 2 h -6 z m 12,0 h 6 v 2 h -6 z m 12,0 h 6 v 2 h -6 z m 12,0 h 6 v 2 h -6 z" /><path
             id="path38"
             style="fill:#666666;fill-opacity:1;fill-rule:nonzero;stroke:none"
             d="m 231,15 v 6 h -2 v -6 z m 0,12 v 6 h -2 v -6 z m 0,12 v 6 h -2 v -6 z m 0,12 v 6 h -2 v -6 z m 0,12 v 6 h -2 v -6 z m 0,12 v 6 h -2 v -6 z m 0,12 v 6 h -2 v -6 z m 0,12 v 6 h -2 v -6 z m 0,12 v 6 h -2 v -6 z m 0,12.00001 V 129 h -2 v -5.99999 z M 231,135 v 6 h -2 v -6 z m 0,12 v 6 h -2 v -6 z m 0,12 v 6 h -2 v -6 z m 0,12 v 6 h -2 v -6 z m 0,12 v 6 h -2 v -6 z m 0,12 v 6 h -2 v -6 z m 0,12 v 6 h -2 v -6 z m 0,12 v 6 h -2 v -6 z m 0,12.00002 v 6 h -2 v -6 z m 0,12 v 6 h -2 v -6 z m 0,11.99996 V 261 h -2 v -6.00002 z M 231,267 v 6 h -2 v -6 z m 0,12 v 6 h -2 v -6 z m 0,12 v 6 h -2 v -6 z m 0,12 v 6 h -2 v -6 z m 0,12 v 6 h -2 v -6 z m 0,12 v 6 h -2 v -6 z m 0,12 v 6 h -2 v -6 z m 0,12 v 6 h -2 v -6 z m 0,12 v 6 h -2 v -6 z m 0,12 v 6 h -2 v -6 z m 1,9 h 6 v 2 h -6 z m 12,0 h 6 v 2 h -6 z m 12,0 h 6 v 2 h -6 z m 12,0 h 6 v 2 h -6 z m 12,0 h 6 v 2 h -6 z m 12,0 h 6 v 2 h -6 z m 12,0 h 6 v 2 h -6 z m 12,0 h 6 v 2 h -6 z m 12,0 h 6 v 2 h -6 z m 12,0 h 6 v 2 h -6 z m 12,0 h 6 v 2 h -6 z m 12,0 h 6 v 2 h -6 z m 12,0 h 6 v 2 h -6 z m 12,0 h 6 v 2 h -6 z m 12,0 h 6 v 2 h -6 z m 9,-1 v -6 h 2 v 6 z m 0,-12 v -6 h 2 v 6 z m 0,-12 v -6 h 2 v 6 z m 0,-12 v -6 h 2 v 6 z m 0,-12 v -6 h 2 v 6 z m 0,-12 v -6 h 2 v 6 z m 0,-12 v -6 h 2 v 6 z m 0,-12 v -6 h 2 v 6 z m 0,-12 v -6 h 2 v 6 z m 0,-12 v -6 h 2 v 6 z m 0,-12 v -6 h 2 v 6 z m 0,-12 v -6 h 2 v 6 z m 0,-12 v -6 h 2 v 6 z m 0,-12 v -6 h 2 v 6 z m 0,-12 v -6 h 2 v 6 z m 0,-12 v -5.99998 h 2 V 203 Z m 0,-11.99998 v -6 h 2 v 6 z m 0,-12 V 173 h 2 v 6.00002 z M 409,167 v -6 h 2 v 6 z m 0,-12 v -6 h 2 v 6 z m 0,-12 v -6 h 2 v 6 z m 0,-12 v -6 h 2 v 6 z m 0,-12 v -6 h 2 v 6 z m 0,-12 v -6 h 2 v 6 z m 0,-12 v -6 h 2 v 6 z m 0,-12 v -6 h 2 v 6 z m 0,-12 v -6 h 2 v 6 z m 0,-12 v -6 h 2 v 6 z m 0,-12 v -6 h 2 v 6 z m 0,-12 v -6 h 2 v 6 z m 0,-12 v -6 h 2 v 6 z" /><path
             id="path40"
             style="fill:#f8cecc;fill-opacity:1;fill-rule:nonzero;stroke:none"
             d="m 277,335 h 86 c 0.2652,0 0.52032,0.0507 0.76535,0.15222 0.24503,0.1015 0.4613,0.246 0.64887,0.43353 0.18753,0.1875 0.33203,0.40378 0.43353,0.64884 C 364.94925,336.47961 365,336.73477 365,337 v 11 c 0,0.26517 -0.0507,0.52029 -0.15225,0.76532 -0.1015,0.24503 -0.246,0.4613 -0.43353,0.64886 -0.18757,0.1875 -0.40384,0.33201 -0.64887,0.43354 C 363.52032,349.94919 363.2652,349.99997 363,350 h -86 c -0.26523,-3e-5 -0.52039,-0.0508 -0.76541,-0.15228 -0.24503,-0.10153 -0.46131,-0.24604 -0.64884,-0.43354 -0.18756,-0.18756 -0.33209,-0.40383 -0.43356,-0.64886 C 275.05072,348.52029 274.99997,348.26517 275,348 v -11 c -3e-5,-0.26523 0.0507,-0.52039 0.15219,-0.76541 0.10147,-0.24506 0.246,-0.46134 0.43356,-0.64884 0.18753,-0.18753 0.40381,-0.33203 0.64884,-0.43353 C 276.47961,335.05075 276.73477,335 277,335 Z" /><path
             id="path42"
             style="fill:none;stroke:#b85450;stroke-width:1;stroke-linecap:butt;stroke-linejoin:miter;stroke-miterlimit:10;stroke-dasharray:none;stroke-opacity:1"
             d="m 277,335 h 86 c 0.2652,0 0.52032,0.0507 0.76535,0.15222 0.24503,0.1015 0.4613,0.246 0.64887,0.43353 0.18753,0.1875 0.33203,0.40378 0.43353,0.64884 C 364.94925,336.47961 365,336.73477 365,337 v 11 c 0,0.26517 -0.0507,0.52029 -0.15225,0.76532 -0.1015,0.24503 -0.246,0.4613 -0.43353,0.64886 -0.18757,0.1875 -0.40384,0.33201 -0.64887,0.43354 C 363.52032,349.94919 363.2652,349.99997 363,350 h -86 c -0.26523,-3e-5 -0.52039,-0.0508 -0.76541,-0.15228 -0.24503,-0.10153 -0.46131,-0.24604 -0.64884,-0.43354 -0.18756,-0.18756 -0.33209,-0.40383 -0.43356,-0.64886 C 275.05072,348.52029 274.99997,348.26517 275,348 v -11 c -3e-5,-0.26523 0.0507,-0.52039 0.15219,-0.76541 0.10147,-0.24506 0.246,-0.46134 0.43356,-0.64884 0.18753,-0.18753 0.40381,-0.33203 0.64884,-0.43353 C 276.47961,335.05075 276.73477,335 277,335 Z" /><path
             id="path44"
             style="fill:#f8cecc;fill-opacity:1;fill-rule:nonzero;stroke:none"
             d="m 277,317.5 h 86 c 0.2652,0 0.52032,0.0507 0.76535,0.15222 0.24503,0.10147 0.4613,0.246 0.64887,0.43356 0.18753,0.18754 0.33203,0.40378 0.43353,0.64881 C 364.94925,318.97964 365,319.23477 365,319.5 v 11 c 0,0.2652 -0.0507,0.52032 -0.15225,0.76535 -0.1015,0.24503 -0.246,0.46133 -0.43353,0.64887 -0.18757,0.1875 -0.40384,0.332 -0.64887,0.4335 -0.24503,0.1015 -0.50015,0.15225 -0.76535,0.15228 h -86 c -0.26523,-3e-5 -0.52039,-0.0508 -0.76541,-0.15228 -0.24503,-0.1015 -0.46131,-0.246 -0.64884,-0.4335 -0.18756,-0.18754 -0.33209,-0.40384 -0.43356,-0.64887 C 275.05072,331.02032 274.99997,330.7652 275,330.5 v -11 c -3e-5,-0.26523 0.0507,-0.52036 0.15219,-0.76541 0.10147,-0.24503 0.246,-0.46127 0.43356,-0.64881 0.18753,-0.18756 0.40381,-0.33209 0.64884,-0.43356 C 276.47961,317.55075 276.73477,317.5 277,317.5 Z" /><path
             id="path46"
             style="fill:none;stroke:#b85450;stroke-width:1;stroke-linecap:butt;stroke-linejoin:miter;stroke-miterlimit:10;stroke-dasharray:none;stroke-opacity:1"
             d="m 277,317.5 h 86 c 0.2652,0 0.52032,0.0507 0.76535,0.15222 0.24503,0.10147 0.4613,0.246 0.64887,0.43356 0.18753,0.18754 0.33203,0.40378 0.43353,0.64881 C 364.94925,318.97964 365,319.23477 365,319.5 v 11 c 0,0.2652 -0.0507,0.52032 -0.15225,0.76535 -0.1015,0.24503 -0.246,0.46133 -0.43353,0.64887 -0.18757,0.1875 -0.40384,0.332 -0.64887,0.4335 -0.24503,0.1015 -0.50015,0.15225 -0.76535,0.15228 h -86 c -0.26523,-3e-5 -0.52039,-0.0508 -0.76541,-0.15228 -0.24503,-0.1015 -0.46131,-0.246 -0.64884,-0.4335 -0.18756,-0.18754 -0.33209,-0.40384 -0.43356,-0.64887 C 275.05072,331.02032 274.99997,330.7652 275,330.5 v -11 c -3e-5,-0.26523 0.0507,-0.52036 0.15219,-0.76541 0.10147,-0.24503 0.246,-0.46127 0.43356,-0.64881 0.18753,-0.18756 0.40381,-0.33209 0.64884,-0.43356 C 276.47961,317.55075 276.73477,317.5 277,317.5 Z" /><path
             id="path48"
             style="fill:#f8cecc;fill-opacity:1;fill-rule:nonzero;stroke:none"
             d="m 277,300 h 86 c 0.2652,0 0.52032,0.0507 0.76535,0.15222 0.24503,0.10147 0.4613,0.246 0.64887,0.43353 0.18753,0.18753 0.33203,0.40378 0.43353,0.64881 C 364.94925,301.47961 365,301.73477 365,302 v 11 c 0,0.2652 -0.0507,0.52029 -0.15225,0.76532 -0.1015,0.24503 -0.246,0.46133 -0.43353,0.6489 -0.18757,0.18753 -0.40384,0.33203 -0.64887,0.43353 C 363.52032,314.94925 363.2652,315 363,315 h -86 c -0.26523,0 -0.52039,-0.0507 -0.76541,-0.15225 -0.24503,-0.1015 -0.46131,-0.246 -0.64884,-0.43353 -0.18756,-0.18757 -0.33209,-0.40387 -0.43356,-0.6489 C 275.05072,313.52029 274.99997,313.2652 275,313 v -11 c -3e-5,-0.26523 0.0507,-0.52039 0.15219,-0.76544 0.10147,-0.24503 0.246,-0.46128 0.43356,-0.64881 0.18753,-0.18753 0.40381,-0.33206 0.64884,-0.43353 C 276.47961,300.05075 276.73477,300 277,300 Z" /><path
             id="path50"
             style="fill:none;stroke:#b85450;stroke-width:1;stroke-linecap:butt;stroke-linejoin:miter;stroke-miterlimit:10;stroke-dasharray:none;stroke-opacity:1"
             d="m 277,300 h 86 c 0.2652,0 0.52032,0.0507 0.76535,0.15222 0.24503,0.10147 0.4613,0.246 0.64887,0.43353 0.18753,0.18753 0.33203,0.40378 0.43353,0.64881 C 364.94925,301.47961 365,301.73477 365,302 v 11 c 0,0.2652 -0.0507,0.52029 -0.15225,0.76532 -0.1015,0.24503 -0.246,0.46133 -0.43353,0.6489 -0.18757,0.18753 -0.40384,0.33203 -0.64887,0.43353 C 363.52032,314.94925 363.2652,315 363,315 h -86 c -0.26523,0 -0.52039,-0.0507 -0.76541,-0.15225 -0.24503,-0.1015 -0.46131,-0.246 -0.64884,-0.43353 -0.18756,-0.18757 -0.33209,-0.40387 -0.43356,-0.6489 C 275.05072,313.52029 274.99997,313.2652 275,313 v -11 c -3e-5,-0.26523 0.0507,-0.52039 0.15219,-0.76544 0.10147,-0.24503 0.246,-0.46128 0.43356,-0.64881 0.18753,-0.18753 0.40381,-0.33206 0.64884,-0.43353 C 276.47961,300.05075 276.73477,300 277,300 Z" /><path
             id="path52"
             style="fill:#f8cecc;fill-opacity:1;fill-rule:nonzero;stroke:none"
             d="m 277,282.5 h 86 c 0.2652,0 0.52032,0.0507 0.76535,0.15219 0.24503,0.1015 0.4613,0.24603 0.64887,0.43356 0.18753,0.18753 0.33203,0.40381 0.43353,0.64884 C 364.94925,283.97961 365,284.23477 365,284.5 v 11 c 0,0.26517 -0.0507,0.52029 -0.15225,0.76535 -0.1015,0.245 -0.246,0.46127 -0.43353,0.64883 -0.18757,0.18754 -0.40384,0.33204 -0.64887,0.43357 -0.24503,0.10147 -0.50015,0.15222 -0.76535,0.15225 h -86 c -0.26523,-3e-5 -0.52039,-0.0508 -0.76541,-0.15225 -0.24503,-0.10153 -0.46131,-0.24603 -0.64884,-0.43357 -0.18756,-0.18756 -0.33209,-0.40383 -0.43356,-0.64883 C 275.05072,296.02029 274.99997,295.76517 275,295.5 v -11 c -3e-5,-0.26523 0.0507,-0.52039 0.15219,-0.76541 0.10147,-0.24503 0.246,-0.46131 0.43356,-0.64884 0.18753,-0.18753 0.40381,-0.33206 0.64884,-0.43356 C 276.47961,282.55072 276.73477,282.5 277,282.5 Z" /><path
             id="path54"
             style="fill:none;stroke:#b85450;stroke-width:1;stroke-linecap:butt;stroke-linejoin:miter;stroke-miterlimit:10;stroke-dasharray:none;stroke-opacity:1"
             d="m 277,282.5 h 86 c 0.2652,0 0.52032,0.0507 0.76535,0.15219 0.24503,0.1015 0.4613,0.24603 0.64887,0.43356 0.18753,0.18753 0.33203,0.40381 0.43353,0.64884 C 364.94925,283.97961 365,284.23477 365,284.5 v 11 c 0,0.26517 -0.0507,0.52029 -0.15225,0.76535 -0.1015,0.245 -0.246,0.46127 -0.43353,0.64883 -0.18757,0.18754 -0.40384,0.33204 -0.64887,0.43357 -0.24503,0.10147 -0.50015,0.15222 -0.76535,0.15225 h -86 c -0.26523,-3e-5 -0.52039,-0.0508 -0.76541,-0.15225 -0.24503,-0.10153 -0.46131,-0.24603 -0.64884,-0.43357 -0.18756,-0.18756 -0.33209,-0.40383 -0.43356,-0.64883 C 275.05072,296.02029 274.99997,295.76517 275,295.5 v -11 c -3e-5,-0.26523 0.0507,-0.52039 0.15219,-0.76541 0.10147,-0.24503 0.246,-0.46131 0.43356,-0.64884 0.18753,-0.18753 0.40381,-0.33206 0.64884,-0.43356 C 276.47961,282.55072 276.73477,282.5 277,282.5 Z" /><path
             id="path56"
             style="fill:#f8cecc;fill-opacity:1;fill-rule:nonzero;stroke:none"
             d="m 277,265 h 86 c 0.2652,0 0.52032,0.0507 0.76535,0.15222 0.24503,0.1015 0.4613,0.24603 0.64887,0.43356 0.18753,0.18754 0.33203,0.40381 0.43353,0.64884 C 364.94925,266.47964 365,266.73477 365,267 v 11 c 0,0.2652 -0.0507,0.52029 -0.15225,0.76532 -0.1015,0.24503 -0.246,0.46133 -0.43353,0.64886 -0.18757,0.18754 -0.40384,0.33204 -0.64887,0.43351 C 363.52032,279.94922 363.2652,279.99997 363,280 h -86 c -0.26523,-3e-5 -0.52039,-0.0508 -0.76541,-0.15231 -0.24503,-0.10147 -0.46131,-0.24597 -0.64884,-0.43351 -0.18756,-0.18753 -0.33209,-0.40383 -0.43356,-0.64886 C 275.05072,278.52029 274.99997,278.2652 275,278 v -11 c -3e-5,-0.26523 0.0507,-0.52036 0.15219,-0.76538 0.10147,-0.24503 0.246,-0.4613 0.43356,-0.64884 0.18753,-0.18753 0.40381,-0.33206 0.64884,-0.43356 C 276.47961,265.05075 276.73477,265 277,265 Z" /><path
             id="path58"
             style="fill:none;stroke:#b85450;stroke-width:1;stroke-linecap:butt;stroke-linejoin:miter;stroke-miterlimit:10;stroke-dasharray:none;stroke-opacity:1"
             d="m 277,265 h 86 c 0.2652,0 0.52032,0.0507 0.76535,0.15222 0.24503,0.1015 0.4613,0.24603 0.64887,0.43356 0.18753,0.18754 0.33203,0.40381 0.43353,0.64884 C 364.94925,266.47964 365,266.73477 365,267 v 11 c 0,0.2652 -0.0507,0.52029 -0.15225,0.76532 -0.1015,0.24503 -0.246,0.46133 -0.43353,0.64886 -0.18757,0.18754 -0.40384,0.33204 -0.64887,0.43351 C 363.52032,279.94922 363.2652,279.99997 363,280 h -86 c -0.26523,-3e-5 -0.52039,-0.0508 -0.76541,-0.15231 -0.24503,-0.10147 -0.46131,-0.24597 -0.64884,-0.43351 -0.18756,-0.18753 -0.33209,-0.40383 -0.43356,-0.64886 C 275.05072,278.52029 274.99997,278.2652 275,278 v -11 c -3e-5,-0.26523 0.0507,-0.52036 0.15219,-0.76538 0.10147,-0.24503 0.246,-0.4613 0.43356,-0.64884 0.18753,-0.18753 0.40381,-0.33206 0.64884,-0.43356 C 276.47961,265.05075 276.73477,265 277,265 Z" /><path
             id="path60"
             style="fill:#f8cecc;fill-opacity:1;fill-rule:nonzero;stroke:none"
             d="m 279,263 21,-13 h 40 l 21,13 z" /><path
             id="path62"
             style="fill:none;stroke:#b85450;stroke-width:1;stroke-linecap:butt;stroke-linejoin:miter;stroke-miterlimit:10;stroke-dasharray:none;stroke-opacity:1"
             d="m 279,263 21,-13 h 40 l 21,13 z" /><path
             id="path64"
             style="fill:#ffffff;fill-opacity:1;fill-rule:nonzero;stroke:none"
             d="m 361,342.5 c -3e-5,0.53043 -0.10153,1.04065 -0.30453,1.5307 -0.20301,0.49002 -0.49204,0.92261 -0.86707,1.2977 -0.37509,0.37506 -0.80768,0.66409 -1.29773,0.86707 -0.49002,0.203 -1.00024,0.3045 -1.53067,0.30453 -0.53046,-3e-5 -1.04071,-0.10153 -1.53079,-0.30453 -0.49005,-0.20298 -0.92261,-0.49201 -1.29764,-0.86707 -0.37509,-0.37509 -0.66415,-0.80768 -0.86716,-1.2977 -0.20297,-0.49005 -0.30444,-1.00027 -0.30441,-1.5307 -3e-5,-0.53046 0.10144,-1.04071 0.30441,-1.53079 0.20301,-0.49002 0.49207,-0.92258 0.86716,-1.29764 0.37503,-0.37509 0.80759,-0.66412 1.29764,-0.8671 C 355.95929,338.6015 356.46954,338.5 357,338.5 c 0.53043,0 1.04065,0.1015 1.53067,0.30447 0.49005,0.20298 0.92264,0.49201 1.29773,0.8671 0.37503,0.37506 0.66406,0.80762 0.86707,1.29764 0.203,0.49008 0.3045,1.00033 0.30453,1.53079 z" /><path
             id="path66"
             style="fill:#ffffff;fill-opacity:1;fill-rule:nonzero;stroke:none"
             d="m 360.67001,325 c -3e-5,0.53043 -0.10153,1.04065 -0.3045,1.53067 -0.203,0.49008 -0.49204,0.92264 -0.8671,1.29773 -0.37509,0.37506 -0.80764,0.66409 -1.2977,0.86707 -0.49008,0.203 -1.0003,0.3045 -1.5307,0.30453 -0.53045,-3e-5 -1.04071,-0.10153 -1.53076,-0.30453 -0.49008,-0.20298 -0.92264,-0.49201 -1.2977,-0.86707 -0.37509,-0.37509 -0.66412,-0.80765 -0.86709,-1.29773 -0.20298,-0.49002 -0.30448,-1.00024 -0.30445,-1.53067 -3e-5,-0.53046 0.10147,-1.04071 0.30445,-1.53079 0.20297,-0.49008 0.492,-0.92264 0.86709,-1.29767 0.37506,-0.37509 0.80762,-0.66412 1.2977,-0.8671 0.49005,-0.20297 1.00031,-0.30444 1.53076,-0.30444 0.5304,0 1.04062,0.10147 1.5307,0.30444 0.49006,0.20298 0.92261,0.49201 1.2977,0.8671 0.37506,0.37503 0.6641,0.80759 0.8671,1.29767 0.20297,0.49008 0.30447,1.00033 0.3045,1.53079 z" /><path
             id="path68"
             style="fill:#ffffff;fill-opacity:1;fill-rule:nonzero;stroke:none"
             d="m 361,307.5 c -3e-5,0.53043 -0.10153,1.04065 -0.30453,1.53073 -0.20301,0.49005 -0.49204,0.92261 -0.86707,1.2977 -0.37509,0.37506 -0.80768,0.66409 -1.29773,0.86707 -0.49002,0.20297 -1.00024,0.30447 -1.53067,0.3045 -0.53046,-3e-5 -1.04071,-0.10153 -1.53079,-0.3045 -0.49005,-0.20298 -0.92261,-0.49201 -1.29764,-0.86707 -0.37509,-0.37509 -0.66415,-0.80765 -0.86716,-1.2977 -0.20297,-0.49008 -0.30444,-1.0003 -0.30441,-1.53073 -3e-5,-0.53043 0.10144,-1.04068 0.30441,-1.53076 0.20301,-0.49008 0.49207,-0.92264 0.86716,-1.29767 0.37503,-0.37509 0.80759,-0.66412 1.29764,-0.8671 C 355.95929,303.6015 356.46954,303.5 357,303.5 c 0.53043,0 1.04065,0.1015 1.53067,0.30447 0.49005,0.20298 0.92264,0.49201 1.29773,0.8671 0.37503,0.37503 0.66406,0.80759 0.86707,1.29767 0.203,0.49008 0.3045,1.00033 0.30453,1.53076 z" /><path
             id="path70"
             style="fill:#ffffff;fill-opacity:1;fill-rule:nonzero;stroke:none"
             d="m 361,290 c -3e-5,0.53043 -0.10153,1.04065 -0.30453,1.5307 -0.20301,0.49005 -0.49204,0.92264 -0.86707,1.29773 -0.37509,0.37506 -0.80768,0.66409 -1.29773,0.86707 C 358.04065,293.8985 357.53043,294 357,294 c -0.53046,0 -1.04071,-0.1015 -1.53079,-0.3045 -0.49005,-0.20298 -0.92261,-0.49201 -1.29764,-0.86707 -0.37509,-0.37509 -0.66415,-0.80768 -0.86716,-1.29773 C 353.10144,291.04065 352.99997,290.53043 353,290 c -3e-5,-0.53043 0.10144,-1.04068 0.30441,-1.53076 0.20301,-0.49005 0.49207,-0.92261 0.86716,-1.29767 0.37503,-0.37509 0.80759,-0.66412 1.29764,-0.86713 C 355.95929,286.10147 356.46954,286 357,286 c 0.53043,0 1.04065,0.10147 1.53067,0.30444 0.49005,0.20301 0.92264,0.49204 1.29773,0.86713 0.37503,0.37506 0.66406,0.80762 0.86707,1.29767 0.203,0.49008 0.3045,1.00033 0.30453,1.53076 z" /><path
             id="path72"
             style="fill:#ffffff;fill-opacity:1;fill-rule:nonzero;stroke:none"
             d="m 361,272.5 c -3e-5,0.53043 -0.10153,1.04065 -0.30453,1.5307 -0.20301,0.49002 -0.49204,0.92261 -0.86707,1.2977 -0.37509,0.37506 -0.80768,0.66409 -1.29773,0.8671 -0.49002,0.20297 -1.00024,0.30447 -1.53067,0.3045 -0.53046,-3e-5 -1.04071,-0.10153 -1.53079,-0.3045 -0.49005,-0.20301 -0.92261,-0.49204 -1.29764,-0.8671 -0.37509,-0.37509 -0.66415,-0.80768 -0.86716,-1.2977 -0.20297,-0.49005 -0.30444,-1.00027 -0.30441,-1.5307 -3e-5,-0.53046 0.10144,-1.04071 0.30441,-1.53076 0.20301,-0.49008 0.49207,-0.92264 0.86716,-1.2977 0.37503,-0.37506 0.80759,-0.66409 1.29764,-0.86707 C 355.95929,268.6015 356.46954,268.5 357,268.5 c 0.53043,0 1.04065,0.10147 1.53067,0.30444 0.49005,0.20301 0.92264,0.49204 1.29773,0.8671 0.37503,0.37506 0.66406,0.80762 0.86707,1.2977 0.203,0.49005 0.3045,1.0003 0.30453,1.53076 z" /><path
             id="path74"
             style="fill:#ffffff;fill-opacity:1;fill-rule:nonzero;stroke:none"
             d="m 280,348 5,-11 h 5 l -5,11 z m 10,0 5,-11 h 5 l -5,11 z m 10,0 5,-11 h 5 l -5,11 z m 10,0 5,-11 h 5 l -5,11 z m 10,0 5,-11 h 5 l -5,11 z m 10,0 5,-11 h 5 l -5,11 z m -50,-17.5 5,-11 h 5 l -5,11 z m 10,0 5,-11 h 5 l -5,11 z m 10,0 5,-11 h 5 l -5,11 z m 10,0 5,-11 h 5 l -5,11 z m 10,0 5,-11 h 5 l -5,11 z m 10,0 5,-11 h 5 l -5,11 z m -50,-17.5 5,-11 h 5 l -5,11 z m 10,0 5,-11 h 5 l -5,11 z m 10,0 4.5,-11 h 5 l -5,11 z m 10,0 5,-11 h 5 l -5,11 z m 10,0 5,-11 h 5 l -5,11 z m 10,0 5,-11 h 5 l -5,11 z m -50,-17.5 5,-11 h 5 l -5,11 z m 10,0 5,-11 h 5 l -5,11 z m 10,0 5,-11 h 5 l -5,11 z m 10,0 5,-11 h 5 l -5,11 z m 10,0 5,-11 h 5 l -5,11 z m 10,0 5,-11 h 5 l -5,11 z m -50,-17.5 5,-11 h 5 l -5,11 z m 10,0 5,-11 h 5 l -5,11 z m 10,0 5,-11 h 5 l -5,11 z m 10,0 5,-11 h 5 l -5,11 z m 10,0 5,-11 h 5 l -5,11 z m 10,0 5,-11 h 5 l -5,11 z" /><text
             id="text78"
             style="font-variant:normal;font-weight:bold;font-size:14px;font-family:Arimo;-inkscape-font-specification:Arimo-Bold;writing-mode:lr-tb;fill:#b85450;fill-opacity:1;fill-rule:nonzero;stroke:none"
             transform="translate(259.04688,370)"><tspan
               id="tspan76"
               y="0"
               x="0 9.3378906 17.889648 23.337891 27.227539 35.779297 44.331055 48.220703 58.331055 66.882812 75.43457 79.324219 88.662109 96.448242 101.89648 109.68262 117.46875">Spring App Server</tspan></text>
<path
             id="path80"
             style="fill:#e1d5e7;fill-opacity:1;fill-rule:nonzero;stroke:none"
             d="m 45,325.5 c 0,-5.79999 8.950001,-10.5 20,-10.5 11.050003,0 20,4.70001 20,10.5 v 14 c 0,5.79999 -8.949997,10.5 -20,10.5 -11.049999,0 -20,-4.70001 -20,-10.5 z" /><path
             id="path82"
             style="fill:none;stroke:#9673a6;stroke-width:1;stroke-linecap:butt;stroke-linejoin:miter;stroke-miterlimit:10;stroke-dasharray:none;stroke-opacity:1"
             d="m 45,325.5 c 0,-5.79999 8.950001,-10.5 20,-10.5 11.050003,0 20,4.70001 20,10.5 v 14 c 0,5.79999 -8.949997,10.5 -20,10.5 -11.049999,0 -20,-4.70001 -20,-10.5 z" /><path
             id="path84"
             style="fill:#e1d5e7;fill-opacity:1;fill-rule:nonzero;stroke:none"
             d="m 45,308 c 0,-5.79999 8.950001,-10.5 20,-10.5 11.050003,0 20,4.70001 20,10.5 v 14 c 0,5.79999 -8.949997,10.5 -20,10.5 -11.049999,0 -20,-4.70001 -20,-10.5 z" /><path
             id="path86"
             style="fill:none;stroke:#9673a6;stroke-width:1;stroke-linecap:butt;stroke-linejoin:miter;stroke-miterlimit:10;stroke-dasharray:none;stroke-opacity:1"
             d="m 45,308 c 0,-5.79999 8.950001,-10.5 20,-10.5 11.050003,0 20,4.70001 20,10.5 v 14 c 0,5.79999 -8.949997,10.5 -20,10.5 -11.049999,0 -20,-4.70001 -20,-10.5 z" /><path
             id="path88"
             style="fill:#e1d5e7;fill-opacity:1;fill-rule:nonzero;stroke:none"
             d="m 45,290.5 c 0,-5.79999 8.950001,-10.5 20,-10.5 11.050003,0 20,4.70001 20,10.5 v 14 c 0,5.79999 -8.949997,10.5 -20,10.5 -11.049999,0 -20,-4.70001 -20,-10.5 z" /><path
             id="path90"
             style="fill:none;stroke:#9673a6;stroke-width:1;stroke-linecap:butt;stroke-linejoin:miter;stroke-miterlimit:10;stroke-dasharray:none;stroke-opacity:1"
             d="m 45,290.5 c 0,-5.79999 8.950001,-10.5 20,-10.5 11.050003,0 20,4.70001 20,10.5 v 14 c 0,5.79999 -8.949997,10.5 -20,10.5 -11.049999,0 -20,-4.70001 -20,-10.5 z" /><path
             id="path92"
             style="fill:none;stroke:#9673a6;stroke-width:1;stroke-linecap:butt;stroke-linejoin:miter;stroke-miterlimit:10;stroke-dasharray:none;stroke-opacity:1"
             d="m 45,325.5 c 0,5.79999 8.950001,10.5 20,10.5 11.050003,0 20,-4.70001 20,-10.5 M 45,308 c 0,5.79999 8.950001,10.5 20,10.5 11.050003,0 20,-4.70001 20,-10.5 M 45,290.5 c 0,5.79999 8.950001,10.5 20,10.5 11.050003,0 20,-4.70001 20,-10.5" /><text
             id="text96"
             style="font-variant:normal;font-weight:bold;font-size:14px;font-family:Arimo;-inkscape-font-specification:Arimo-Bold;writing-mode:lr-tb;fill:#9673a6;fill-opacity:1;fill-rule:nonzero;stroke:none"
             transform="translate(41.390625,370)"><tspan
               id="tspan94"
               y="0"
               x="0 11.662109 19.448242 28.786133 39.675781">MySQL</tspan></text>
<path
             id="path98"
             style="fill:#ffffff;fill-opacity:1;fill-rule:nonzero;stroke:none"
             d="m 290,215 c -24,0 -30,20 -10.79999,24 -19.20001,8.8 2.4,28 18,20 C 308,275 344,275 356,259 c 24,0 24,-16 9,-24 15,-16 -9,-32 -30,-24 -15,-12 -39,-12 -45,4 z" /><path
             id="path100"
             style="fill:none;stroke:#b85450;stroke-width:1;stroke-linecap:butt;stroke-linejoin:miter;stroke-miterlimit:10;stroke-dasharray:none;stroke-opacity:1"
             d="m 290,215 c -24,0 -30,20 -10.79999,24 -19.20001,8.8 2.4,28 18,20 C 308,275 344,275 356,259 c 24,0 24,-16 9,-24 15,-16 -9,-32 -30,-24 -15,-12 -39,-12 -45,4 z" /><text
             id="text104"
             style="font-variant:normal;font-weight:bold;font-size:14px;font-family:Arimo;-inkscape-font-specification:Arimo-Bold;writing-mode:lr-tb;fill:#b85450;fill-opacity:1;fill-rule:nonzero;stroke:none"
             transform="translate(292.76563,232)"><tspan
               id="tspan102"
               y="0"
               x="0 10.110352 19.448242 28.786133 37.337891 42 50.551758">RESTful</tspan></text>
<text
             id="text108"
             style="font-variant:normal;font-weight:bold;font-size:14px;font-family:Arimo;-inkscape-font-specification:Arimo-Bold;writing-mode:lr-tb;fill:#b85450;fill-opacity:1;fill-rule:nonzero;stroke:none"
             transform="translate(308.32813,249)"><tspan
               id="tspan106"
               y="0"
               x="0 10.110352 19.448242">API</tspan></text>
<path
             id="path110"
             style="fill:#fff2cc;fill-opacity:1;fill-rule:nonzero;stroke:none"
             d="m 277,130 h 86 c 0.2652,0 0.52032,0.0507 0.76535,0.15224 0.24503,0.10148 0.4613,0.246 0.64887,0.43354 0.18753,0.18753 0.33203,0.40381 0.43353,0.64884 C 364.94925,131.47966 365,131.73479 365,132 v 11 c 0,0.26521 -0.0507,0.52033 -0.15225,0.76533 -0.1015,0.24503 -0.246,0.46132 -0.43353,0.64887 -0.18757,0.18753 -0.40384,0.33205 -0.64887,0.43355 C 363.52032,144.94923 363.2652,144.99998 363,145 h -86 c -0.26523,-2e-5 -0.52039,-0.0508 -0.76541,-0.15225 -0.24503,-0.1015 -0.46131,-0.24602 -0.64884,-0.43355 -0.18756,-0.18755 -0.33209,-0.40384 -0.43356,-0.64887 C 275.05072,143.52033 274.99997,143.26521 275,143 v -11 c -3e-5,-0.26521 0.0507,-0.52034 0.15219,-0.76538 0.10147,-0.24503 0.246,-0.46131 0.43356,-0.64884 0.18753,-0.18754 0.40381,-0.33206 0.64884,-0.43354 C 276.47961,130.05075 276.73477,130 277,130 Z" /><path
             id="path112"
             style="fill:none;stroke:#d6b656;stroke-width:1;stroke-linecap:butt;stroke-linejoin:miter;stroke-miterlimit:10;stroke-dasharray:none;stroke-opacity:1"
             d="m 277,130 h 86 c 0.2652,0 0.52032,0.0507 0.76535,0.15224 0.24503,0.10148 0.4613,0.246 0.64887,0.43354 0.18753,0.18753 0.33203,0.40381 0.43353,0.64884 C 364.94925,131.47966 365,131.73479 365,132 v 11 c 0,0.26521 -0.0507,0.52033 -0.15225,0.76533 -0.1015,0.24503 -0.246,0.46132 -0.43353,0.64887 -0.18757,0.18753 -0.40384,0.33205 -0.64887,0.43355 C 363.52032,144.94923 363.2652,144.99998 363,145 h -86 c -0.26523,-2e-5 -0.52039,-0.0508 -0.76541,-0.15225 -0.24503,-0.1015 -0.46131,-0.24602 -0.64884,-0.43355 -0.18756,-0.18755 -0.33209,-0.40384 -0.43356,-0.64887 C 275.05072,143.52033 274.99997,143.26521 275,143 v -11 c -3e-5,-0.26521 0.0507,-0.52034 0.15219,-0.76538 0.10147,-0.24503 0.246,-0.46131 0.43356,-0.64884 0.18753,-0.18754 0.40381,-0.33206 0.64884,-0.43354 C 276.47961,130.05075 276.73477,130 277,130 Z" /><path
             id="path114"
             style="fill:#fff2cc;fill-opacity:1;fill-rule:nonzero;stroke:none"
             d="m 277,112.5 h 86 c 0.2652,0 0.52032,0.0507 0.76535,0.15223 0.24503,0.10149 0.4613,0.24601 0.64887,0.43355 0.18753,0.18753 0.33203,0.40381 0.43353,0.64884 C 364.94925,113.97965 365,114.23477 365,114.5 v 11 c 0,0.26521 -0.0507,0.52033 -0.15225,0.76536 -0.1015,0.24502 -0.246,0.4613 -0.43353,0.64885 -0.18757,0.18753 -0.40384,0.33204 -0.64887,0.43354 -0.24503,0.10149 -0.50015,0.15224 -0.76535,0.15225 h -86 c -0.26523,-1e-5 -0.52039,-0.0507 -0.76541,-0.15224 -0.24503,-0.10151 -0.46131,-0.24602 -0.64884,-0.43355 -0.18756,-0.18755 -0.33209,-0.40383 -0.43356,-0.64886 C 275.05072,126.02033 274.99997,125.76521 275,125.5 v -11 c -3e-5,-0.26523 0.0507,-0.52035 0.15219,-0.76538 0.10147,-0.24503 0.246,-0.46131 0.43356,-0.64884 0.18753,-0.18754 0.40381,-0.33206 0.64884,-0.43355 C 276.47961,112.55074 276.73477,112.5 277,112.5 Z" /><path
             id="path116"
             style="fill:none;stroke:#d6b656;stroke-width:1;stroke-linecap:butt;stroke-linejoin:miter;stroke-miterlimit:10;stroke-dasharray:none;stroke-opacity:1"
             d="m 277,112.5 h 86 c 0.2652,0 0.52032,0.0507 0.76535,0.15223 0.24503,0.10149 0.4613,0.24601 0.64887,0.43355 0.18753,0.18753 0.33203,0.40381 0.43353,0.64884 C 364.94925,113.97965 365,114.23477 365,114.5 v 11 c 0,0.26521 -0.0507,0.52033 -0.15225,0.76536 -0.1015,0.24502 -0.246,0.4613 -0.43353,0.64885 -0.18757,0.18753 -0.40384,0.33204 -0.64887,0.43354 -0.24503,0.10149 -0.50015,0.15224 -0.76535,0.15225 h -86 c -0.26523,-1e-5 -0.52039,-0.0507 -0.76541,-0.15224 -0.24503,-0.10151 -0.46131,-0.24602 -0.64884,-0.43355 -0.18756,-0.18755 -0.33209,-0.40383 -0.43356,-0.64886 C 275.05072,126.02033 274.99997,125.76521 275,125.5 v -11 c -3e-5,-0.26523 0.0507,-0.52035 0.15219,-0.76538 0.10147,-0.24503 0.246,-0.46131 0.43356,-0.64884 0.18753,-0.18754 0.40381,-0.33206 0.64884,-0.43355 C 276.47961,112.55074 276.73477,112.5 277,112.5 Z" /><path
             id="path118"
             style="fill:#fff2cc;fill-opacity:1;fill-rule:nonzero;stroke:none"
             d="m 277,95 h 86 c 0.2652,0 0.52032,0.05074 0.76535,0.152229 0.24503,0.101494 0.4613,0.24601 0.64887,0.433548 0.18753,0.187531 0.33203,0.403809 0.43353,0.648842 C 364.94925,96.479652 365,96.734779 365,97 v 11 c 0,0.26521 -0.0507,0.52032 -0.15225,0.76534 -0.1015,0.24504 -0.246,0.46132 -0.43353,0.64886 -0.18757,0.18754 -0.40384,0.33205 -0.64887,0.43355 C 363.52032,109.94924 363.2652,109.99999 363,110 h -86 c -0.26523,-1e-5 -0.52039,-0.0508 -0.76541,-0.15226 -0.24503,-0.10149 -0.46131,-0.246 -0.64884,-0.43354 -0.18756,-0.18754 -0.33209,-0.40382 -0.43356,-0.64885 C 275.05072,108.52032 274.99997,108.26521 275,108 V 97 c -3e-5,-0.265221 0.0507,-0.52034 0.15219,-0.765373 0.10147,-0.245033 0.246,-0.461319 0.43356,-0.64885 0.18753,-0.187538 0.40381,-0.332054 0.64884,-0.433548 C 276.47961,95.050743 276.73477,95 277,95 Z" /><path
             id="path120"
             style="fill:none;stroke:#d6b656;stroke-width:1;stroke-linecap:butt;stroke-linejoin:miter;stroke-miterlimit:10;stroke-dasharray:none;stroke-opacity:1"
             d="m 277,95 h 86 c 0.2652,0 0.52032,0.05074 0.76535,0.152229 0.24503,0.101494 0.4613,0.24601 0.64887,0.433548 0.18753,0.187531 0.33203,0.403809 0.43353,0.648842 C 364.94925,96.479652 365,96.734779 365,97 v 11 c 0,0.26521 -0.0507,0.52032 -0.15225,0.76534 -0.1015,0.24504 -0.246,0.46132 -0.43353,0.64886 -0.18757,0.18754 -0.40384,0.33205 -0.64887,0.43355 C 363.52032,109.94924 363.2652,109.99999 363,110 h -86 c -0.26523,-1e-5 -0.52039,-0.0508 -0.76541,-0.15226 -0.24503,-0.10149 -0.46131,-0.246 -0.64884,-0.43354 -0.18756,-0.18754 -0.33209,-0.40382 -0.43356,-0.64885 C 275.05072,108.52032 274.99997,108.26521 275,108 V 97 c -3e-5,-0.265221 0.0507,-0.52034 0.15219,-0.765373 0.10147,-0.245033 0.246,-0.461319 0.43356,-0.64885 0.18753,-0.187538 0.40381,-0.332054 0.64884,-0.433548 C 276.47961,95.050743 276.73477,95 277,95 Z" /><path
             id="path122"
             style="fill:#fff2cc;fill-opacity:1;fill-rule:nonzero;stroke:none"
             d="m 277,77.5 h 86 c 0.2652,0 0.52032,0.05074 0.76535,0.152229 0.24503,0.101502 0.4613,0.246018 0.64887,0.433556 0.18753,0.18753 0.33203,0.403809 0.43353,0.648842 C 364.94925,78.979652 365,79.234779 365,79.5 v 11 c 0,0.265213 -0.0507,0.520332 -0.15225,0.765358 -0.1015,0.245033 -0.246,0.461311 -0.43353,0.648849 -0.18757,0.187531 -0.40384,0.332047 -0.64887,0.433541 C 363.52032,92.449242 363.2652,92.499992 363,92.5 h -86 c -0.26523,-8e-6 -0.52039,-0.05075 -0.76541,-0.152245 -0.24503,-0.101501 -0.46131,-0.246017 -0.64884,-0.433548 -0.18756,-0.187538 -0.33209,-0.403816 -0.43356,-0.648849 C 275.05072,91.020332 274.99997,90.765213 275,90.5 v -11 c -3e-5,-0.265221 0.0507,-0.520348 0.15219,-0.765373 0.10147,-0.245033 0.246,-0.461312 0.43356,-0.648842 0.18753,-0.187538 0.40381,-0.332054 0.64884,-0.433556 C 276.47961,77.550743 276.73477,77.5 277,77.5 Z" /><path
             id="path124"
             style="fill:none;stroke:#d6b656;stroke-width:1;stroke-linecap:butt;stroke-linejoin:miter;stroke-miterlimit:10;stroke-dasharray:none;stroke-opacity:1"
             d="m 277,77.5 h 86 c 0.2652,0 0.52032,0.05074 0.76535,0.152229 0.24503,0.101502 0.4613,0.246018 0.64887,0.433556 0.18753,0.18753 0.33203,0.403809 0.43353,0.648842 C 364.94925,78.979652 365,79.234779 365,79.5 v 11 c 0,0.265213 -0.0507,0.520332 -0.15225,0.765358 -0.1015,0.245033 -0.246,0.461311 -0.43353,0.648849 -0.18757,0.187531 -0.40384,0.332047 -0.64887,0.433541 C 363.52032,92.449242 363.2652,92.499992 363,92.5 h -86 c -0.26523,-8e-6 -0.52039,-0.05075 -0.76541,-0.152245 -0.24503,-0.101501 -0.46131,-0.246017 -0.64884,-0.433548 -0.18756,-0.187538 -0.33209,-0.403816 -0.43356,-0.648849 C 275.05072,91.020332 274.99997,90.765213 275,90.5 v -11 c -3e-5,-0.265221 0.0507,-0.520348 0.15219,-0.765373 0.10147,-0.245033 0.246,-0.461312 0.43356,-0.648842 0.18753,-0.187538 0.40381,-0.332054 0.64884,-0.433556 C 276.47961,77.550743 276.73477,77.5 277,77.5 Z" /><path
             id="path126"
             style="fill:#fff2cc;fill-opacity:1;fill-rule:nonzero;stroke:none"
             d="m 277,60 h 86 c 0.2652,0 0.52032,0.05074 0.76535,0.152233 0.24503,0.101494 0.4613,0.24601 0.64887,0.433548 0.18753,0.187534 0.33203,0.403816 0.43353,0.648846 C 364.94925,61.479656 365,61.734783 365,62 v 11 c 0,0.265213 -0.0507,0.520332 -0.15225,0.765358 -0.1015,0.245026 -0.246,0.461311 -0.43353,0.648849 -0.18757,0.187539 -0.40384,0.332047 -0.64887,0.433541 C 363.52032,74.949242 363.2652,74.999992 363,75 h -86 c -0.26523,-8e-6 -0.52039,-0.05076 -0.76541,-0.152252 -0.24503,-0.101494 -0.46131,-0.246002 -0.64884,-0.433541 -0.18756,-0.187538 -0.33209,-0.403823 -0.43356,-0.648849 C 275.05072,73.520332 274.99997,73.265213 275,73 V 62 c -3e-5,-0.265217 0.0507,-0.52034 0.15219,-0.765369 0.10147,-0.245034 0.246,-0.461316 0.43356,-0.64885 0.18753,-0.187538 0.40381,-0.332054 0.64884,-0.433548 C 276.47961,60.050743 276.73477,60 277,60 Z" /><path
             id="path128"
             style="fill:none;stroke:#d6b656;stroke-width:1;stroke-linecap:butt;stroke-linejoin:miter;stroke-miterlimit:10;stroke-dasharray:none;stroke-opacity:1"
             d="m 277,60 h 86 c 0.2652,0 0.52032,0.05074 0.76535,0.152233 0.24503,0.101494 0.4613,0.24601 0.64887,0.433548 0.18753,0.187534 0.33203,0.403816 0.43353,0.648846 C 364.94925,61.479656 365,61.734783 365,62 v 11 c 0,0.265213 -0.0507,0.520332 -0.15225,0.765358 -0.1015,0.245026 -0.246,0.461311 -0.43353,0.648849 -0.18757,0.187539 -0.40384,0.332047 -0.64887,0.433541 C 363.52032,74.949242 363.2652,74.999992 363,75 h -86 c -0.26523,-8e-6 -0.52039,-0.05076 -0.76541,-0.152252 -0.24503,-0.101494 -0.46131,-0.246002 -0.64884,-0.433541 -0.18756,-0.187538 -0.33209,-0.403823 -0.43356,-0.648849 C 275.05072,73.520332 274.99997,73.265213 275,73 V 62 c -3e-5,-0.265217 0.0507,-0.52034 0.15219,-0.765369 0.10147,-0.245034 0.246,-0.461316 0.43356,-0.64885 0.18753,-0.187538 0.40381,-0.332054 0.64884,-0.433548 C 276.47961,60.050743 276.73477,60 277,60 Z" /><path
             id="path130"
             style="fill:#fff2cc;fill-opacity:1;fill-rule:nonzero;stroke:none"
             d="m 279,58 21,-13 h 40 l 21,13 z" /><path
             id="path132"
             style="fill:none;stroke:#d6b656;stroke-width:1;stroke-linecap:butt;stroke-linejoin:miter;stroke-miterlimit:10;stroke-dasharray:none;stroke-opacity:1"
             d="m 279,58 21,-13 h 40 l 21,13 z" /><path
             id="path134"
             style="fill:#ffffff;fill-opacity:1;fill-rule:nonzero;stroke:none"
             d="m 361,137.5 c -3e-5,0.53041 -0.10153,1.04065 -0.30453,1.53072 -0.20301,0.49005 -0.49204,0.92262 -0.86707,1.2977 -0.37509,0.37507 -0.80768,0.66409 -1.29773,0.86708 -0.49002,0.20298 -1.00024,0.30448 -1.53067,0.3045 -0.53046,-2e-5 -1.04071,-0.10152 -1.53079,-0.3045 -0.49005,-0.20299 -0.92261,-0.49201 -1.29764,-0.86708 -0.37509,-0.37508 -0.66415,-0.80765 -0.86716,-1.2977 -0.20297,-0.49007 -0.30444,-1.00031 -0.30441,-1.53072 -3e-5,-0.53044 0.10144,-1.0407 0.30441,-1.53076 0.20301,-0.49005 0.49207,-0.92261 0.86716,-1.29769 0.37503,-0.37507 0.80759,-0.6641 1.29764,-0.86708 C 355.95929,133.60149 356.46954,133.5 357,133.5 c 0.53043,0 1.04065,0.10149 1.53067,0.30447 0.49005,0.20298 0.92264,0.49201 1.29773,0.86708 0.37503,0.37508 0.66406,0.80764 0.86707,1.29769 0.203,0.49006 0.3045,1.00032 0.30453,1.53076 z" /><path
             id="path136"
             style="fill:#ffffff;fill-opacity:1;fill-rule:nonzero;stroke:none"
             d="m 360.67001,120 c -3e-5,0.53043 -0.10153,1.04067 -0.3045,1.53072 -0.203,0.49006 -0.49204,0.92263 -0.8671,1.2977 -0.37509,0.37507 -0.80764,0.6641 -1.2977,0.86708 -0.49008,0.203 -1.0003,0.30449 -1.5307,0.3045 -0.53045,-1e-5 -1.04071,-0.1015 -1.53076,-0.30449 -0.49008,-0.20299 -0.92264,-0.49202 -1.2977,-0.86709 -0.37509,-0.37507 -0.66412,-0.80764 -0.86709,-1.2977 -0.20298,-0.49005 -0.30448,-1.00029 -0.30445,-1.53072 -3e-5,-0.53044 0.10147,-1.04069 0.30445,-1.53075 0.20297,-0.49005 0.492,-0.92262 0.86709,-1.29769 0.37506,-0.37507 0.80762,-0.66411 1.2977,-0.86709 0.49005,-0.20298 1.00031,-0.30447 1.53076,-0.30447 0.5304,0 1.04062,0.10149 1.5307,0.30447 0.49006,0.20298 0.92261,0.49202 1.2977,0.86709 0.37506,0.37507 0.6641,0.80764 0.8671,1.29769 0.20297,0.49006 0.30447,1.00031 0.3045,1.53075 z" /><path
             id="path138"
             style="fill:#ffffff;fill-opacity:1;fill-rule:nonzero;stroke:none"
             d="m 361,102.5 c -3e-5,0.53043 -0.10153,1.04067 -0.30453,1.53072 -0.20301,0.49005 -0.49204,0.92262 -0.86707,1.2977 -0.37509,0.37507 -0.80768,0.6641 -1.29773,0.86708 -0.49002,0.20299 -1.00024,0.30449 -1.53067,0.3045 -0.53046,-1e-5 -1.04071,-0.10151 -1.53079,-0.3045 -0.49005,-0.20298 -0.92261,-0.49201 -1.29764,-0.86708 -0.37509,-0.37508 -0.66415,-0.80765 -0.86716,-1.2977 -0.20297,-0.49005 -0.30444,-1.00029 -0.30441,-1.53072 -3e-5,-0.53044 0.10144,-1.04069 0.30441,-1.53075 0.20301,-0.49005 0.49207,-0.92261 0.86716,-1.29768 0.37503,-0.375076 0.80759,-0.664108 1.29764,-0.867096 C 355.95929,98.601494 356.46954,98.5 357,98.5 c 0.53043,0 1.04065,0.101494 1.53067,0.304474 0.49005,0.202988 0.92264,0.49202 1.29773,0.867096 0.37503,0.37507 0.66406,0.80763 0.86707,1.29768 0.203,0.49006 0.3045,1.00031 0.30453,1.53075 z" /><path
             id="path140"
             style="fill:#ffffff;fill-opacity:1;fill-rule:nonzero;stroke:none"
             d="m 361,85 c -3e-5,0.530426 -0.10153,1.040665 -0.30453,1.530724 -0.20301,0.490051 -0.49204,0.922615 -0.86707,1.297691 -0.37509,0.375069 -0.80768,0.664093 -1.29773,0.867088 C 358.04065,88.898499 357.53043,88.999992 357,89 c -0.53046,-8e-6 -1.04071,-0.101501 -1.53079,-0.304497 -0.49005,-0.202995 -0.92261,-0.492019 -1.29764,-0.867088 -0.37509,-0.375076 -0.66415,-0.80764 -0.86716,-1.297691 C 353.10144,86.040665 352.99997,85.530426 353,85 c -3e-5,-0.530441 0.10144,-1.040688 0.30441,-1.530746 0.20301,-0.490059 0.49207,-0.922616 0.86716,-1.297684 0.37503,-0.375076 0.80759,-0.664108 1.29764,-0.867096 C 355.95929,81.101494 356.46954,81 357,81 c 0.53043,0 1.04065,0.101494 1.53067,0.304474 0.49005,0.202988 0.92264,0.49202 1.29773,0.867096 0.37503,0.375068 0.66406,0.807625 0.86707,1.297684 0.203,0.490058 0.3045,1.000305 0.30453,1.530746 z" /><path
             id="path142"
             style="fill:#ffffff;fill-opacity:1;fill-rule:nonzero;stroke:none"
             d="m 361,67.5 c -3e-5,0.530434 -0.10153,1.040672 -0.30453,1.530731 -0.20301,0.490051 -0.49204,0.922615 -0.86707,1.297692 -0.37509,0.375068 -0.80768,0.664093 -1.29773,0.867088 C 358.04065,71.398499 357.53043,71.499992 357,71.5 c -0.53046,-8e-6 -1.04071,-0.101501 -1.53079,-0.304489 -0.49005,-0.202995 -0.92261,-0.49202 -1.29764,-0.867088 -0.37509,-0.375077 -0.66415,-0.807641 -0.86716,-1.297692 C 353.10144,68.540672 352.99997,68.030434 353,67.5 c -3e-5,-0.530434 0.10144,-1.04068 0.30441,-1.530739 0.20301,-0.490059 0.49207,-0.922623 0.86716,-1.297691 0.37503,-0.375076 0.80759,-0.664108 1.29764,-0.867092 C 355.95929,63.601494 356.46954,63.5 357,63.5 c 0.53043,0 1.04065,0.101494 1.53067,0.304478 0.49005,0.202984 0.92264,0.492016 1.29773,0.867092 0.37503,0.375068 0.66406,0.807632 0.86707,1.297691 0.203,0.490059 0.3045,1.000305 0.30453,1.530739 z" /><path
             id="path144"
             style="fill:#ffffff;fill-opacity:1;fill-rule:nonzero;stroke:none"
             d="m 280,143 5,-11 h 5 l -5,11 z m 10,0 5,-11 h 5 l -5,11 z m 10,0 5,-11 h 5 l -5,11 z m 10,0 5,-11 h 5 l -5,11 z m 10,0 5,-11 h 5 l -5,11 z m 10,0 5,-11 h 5 l -5,11 z m -50,-17.5 5,-11 h 5 l -5,11 z m 10,0 5,-11 h 5 l -5,11 z m 10,0 5,-11 h 5 l -5,11 z m 10,0 5,-11 h 5 l -5,11 z m 10,0 5,-11 h 5 l -5,11 z m 10,0 5,-11 h 5 l -5,11 z M 280,108 285,97 h 5 l -5,11 z m 10,0 5,-11 h 5 l -5,11 z m 10,0 4.5,-11 h 5 l -5,11 z m 10,0 5,-11 h 5 l -5,11 z m 10,0 5,-11 h 5 l -5,11 z m 10,0 5,-11 h 5 l -5,11 z m -50,-17.5 5,-11 h 5 l -5,11 z m 10,0 5,-11 h 5 l -5,11 z m 10,0 5,-11 h 5 l -5,11 z m 10,0 5,-11 h 5 l -5,11 z m 10,0 5,-11 h 5 l -5,11 z m 10,0 5,-11 h 5 l -5,11 z M 280,73 285,62 h 5 l -5,11 z m 10,0 5,-11 h 5 l -5,11 z m 10,0 5,-11 h 5 l -5,11 z m 10,0 5,-11 h 5 l -5,11 z m 10,0 5,-11 h 5 l -5,11 z m 10,0 5,-11 h 5 l -5,11 z" /><text
             id="text148"
             style="font-variant:normal;font-weight:bold;font-size:14px;font-family:Arimo;-inkscape-font-specification:Arimo-Bold;writing-mode:lr-tb;fill:#d6b656;fill-opacity:1;fill-rule:nonzero;stroke:none"
             transform="translate(293.01563,165)"><tspan
               id="tspan146"
               y="0"
               x="0 7.5126953 16.064453 28.512695 32.402344 42.512695 50.298828">Tom Cat</tspan></text>
<path
             id="path150"
             style="fill:#ffffff;fill-opacity:1;fill-rule:nonzero;stroke:none"
             d="M 450,29 V 10 h 140 v 19" /><path
             id="path152"
             style="fill:#3f8624;fill-opacity:1;fill-rule:nonzero;stroke:none"
             d="m 449,29 v -6 h 2 v 6 z m 0,-12 v -6 h 2 v 6 z m 6,-8 h 6 v 2 h -6 z m 12,0 h 6 v 2 h -6 z m 12,0 h 6 v 2 h -6 z m 12,0 h 6 v 2 h -6 z m 12,0 h 6 v 2 h -6 z m 12,0 h 6 v 2 h -6 z m 12,0 h 6 v 2 h -6 z m 12,0 h 6 v 2 h -6 z m 12,0 h 6 v 2 h -6 z m 12,0 h 6 v 2 h -6 z m 12,0 h 6 v 2 h -6 z m 12,0 h 4 v 4 h -2 v -3 h 1 v 1 h -3 z m 4,10 v 6 h -2 v -6 z" /><path
             id="path154"
             style="fill:#3f8624;fill-opacity:1;fill-rule:nonzero;stroke:none"
             d="m 451,29 v 6 h -2 v -6 z m 0,12 v 6 h -2 v -6 z m 0,12 v 6 h -2 v -6 z m 0,12 v 6 h -2 v -6 z m 0,12 v 6 h -2 v -6 z m 0,12 v 6 h -2 v -6 z m 0,12 v 6 h -2 v -6 z m 0,12 v 6 h -2 v -6 z m 0,12 v 6 h -2 v -6 z m 0,12 v 6 h -2 v -6 z m 0,12 v 6 h -2 v -6 z m 0,12 v 6 h -2 v -6 z m 0,12 v 6 h -2 v -6 z m 0,12 v 6 h -2 v -6 z m 0,12 v 6 h -2 v -6 z m 0,12 v 1 h -1 v -1 h 5 v 2 h -6 v -2 z m 10,0 h 6 v 2 h -6 z m 12,0 h 6 v 2 h -6 z m 12,0 h 6 v 2 h -6 z m 12,0 h 6 v 2 h -6 z m 12,0 h 6 v 2 h -6 z m 12,0 h 6 v 2 h -6 z m 12,0 h 6 v 2 h -6 z m 12,0 h 6 v 2 h -6 z m 12,0 h 6 v 2 h -6 z m 12,0 h 6 v 2 h -6 z m 12,0 h 6 v 2 h -6 z m 8,-2 v -6 h 2 v 6 z m 0,-12 v -6 h 2 v 6 z m 0,-12 v -6 h 2 v 6 z m 0,-12 v -6 h 2 v 6 z m 0,-12 v -6 h 2 v 6 z m 0,-12 v -6 h 2 v 6 z m 0,-12 v -6 h 2 v 6 z m 0,-12 v -6.00001 h 2 V 123 Z m 0,-12 v -6 h 2 v 6 z m 0,-12 v -6 h 2 v 6 z m 0,-12.000008 V 81 h 2 v 5.999992 z M 589,75 v -6 h 2 v 6 z m 0,-12 v -6 h 2 v 6 z m 0,-12 v -6 h 2 v 6 z m 0,-12 v -6 h 2 v 6 z" /><text
             id="text158"
             style="font-variant:normal;font-weight:bold;font-size:14px;font-family:Arimo;-inkscape-font-specification:Arimo-Bold;writing-mode:lr-tb;fill:#3f8624;fill-opacity:1;fill-rule:nonzero;stroke:none"
             transform="translate(475.25879,25.5)"><tspan
               id="tspan156"
               y="0"
               x="0 10.110352 17.896484 22.558594 30.344727 34.234375 43.572266 52.124023 60.675781 66.124023 73.910156 81.696289">Data Sources</tspan></text>
<path
             id="path160"
             style="fill:#82b366;fill-opacity:1;fill-rule:nonzero;stroke:none"
             d="m 501.79999,99 h -3.37 v -5.480003 h -1.69 V 99 H 493.37 v -5.480003 l -1.68,0.01 v 5.470001 l -3.38,-0.01 v -5.459999 l -1.68,-0.01 V 98.99 L 483.26001,99 v -5.480003 h -1.69 V 99 h -3.37 v -5.470001 l -2.92001,-0.01 c -3.97,0 -7.62,-3.25 -7.62,-7.430001 v -5 H 460 v -3.309997 h 7.66 V 76.120005 H 460 v -3.300003 h 7.66 V 71.150004 H 460 v -3.310006 h 7.66 V 66.180002 H 460 v -3.310001 h 7.66 v -1.66 H 460 v -3.309997 h 7.66 v -2.950001 c 0,-3.650002 3.16001,-7.41 7.63999,-7.41 h 2.90002 v -7.540001 l 3.37,0.01 v 7.530003 h 1.69 v -7.540001 l 3.36999,0.01 v 7.530003 h 1.68 v -7.530003 l 3.38,-0.01 v 7.540001 h 1.68 v -7.540001 l 3.36999,0.01 v 7.530003 h 1.69 v -7.540001 l 3.37,0.01 v 7.530003 H 504.75 c 3.82001,0 7.58002,3.129997 7.58002,7.549999 V 57.90001 H 520 v 3.309997 h -7.66998 v 1.66 H 520 v 3.310001 h -7.66998 v 1.659996 l 7.66998,0.01 v 3.300004 h -7.66998 v 1.669998 H 520 v 3.300003 h -7.66998 v 1.659996 H 520 v 3.309997 h -7.66998 v 4.990006 c 0,3.769996 -3.24002,7.449997 -7.66001,7.449997 l -2.87002,-0.01 v 5.480003 z" /><path
             id="path162"
             style="fill:#000000;fill-opacity:0.30199998;fill-rule:nonzero;stroke:none"
             d="m 478.20001,93.529999 -2.92001,-0.01 c -3.97,0 -7.62,-3.259995 -7.62,-7.430001 v -1.899994 c 0,3.21 2.88999,7.269997 7.71,7.269997 h 2.83001 v 2.07 z m 3.37,-0.01 v -2.059998 l 1.69,0.01 v 2.049996 h -1.69 z m 5.05999,0 v -2.059998 h 1.68 v 2.07 l -1.68,-0.01 z m 5.06,0.01 v -2.07 h 1.68 v 2.059998 l -1.68,0.01 z m 5.04999,-0.01 v -2.059998 h 1.69 v 2.059998 z m 5.06,0 v -2.059998 h 3.03 c 3.95001,0 7.50003,-3.400001 7.50003,-7.339996 v 1.959999 c 0,3.779999 -3.24002,7.449997 -7.66001,7.449997 l -2.87002,-0.01 z" /><path
             id="path164"
             style="fill:#ffffff;fill-opacity:1;fill-rule:nonzero;stroke:none"
             d="m 498.35999,59.779999 c -0.51999,0.61 -0.28998,1.260002 -0.02,1.580002 0.45999,0.549999 1.39001,0.569999 1.80999,0.149997 l 0.92002,-0.91 c 0.38,-0.399997 0.48999,-1 0.10998,-1.539997 -0.61999,-0.760002 -1.41998,-0.600002 -1.85,-0.229999 l -0.97,0.949997 z m -6.15998,-2.919998 C 492,57.66 492.51999,58.18 493,58.360001 c 0.76001,0.220001 1.39999,-0.100003 1.64001,-0.91 l 0.34,-1.170002 c 0.12998,-0.559998 -0.19,-1.180001 -0.80002,-1.41 -0.75998,-0.270001 -1.44,0.200001 -1.61999,0.77 z m -6.81,0.829998 c 0.18998,0.68 0.90998,0.900001 1.65,0.740001 0.69,-0.279998 0.89999,-0.939998 0.76999,-1.439998 l -0.35999,-1.230004 c -0.23001,-0.709999 -1,-1.049999 -1.63,-0.809997 -0.58002,0.189998 -0.99002,0.869999 -0.78,1.5 z m -5.65002,3.780002 c 0.47,0.439999 1.37,0.439999 1.79001,-0.03 0.34,-0.41 0.54001,-1.099999 -0.04,-1.709999 l -0.91998,-0.91 c -0.5,-0.430001 -1.27002,-0.39 -1.69001,0.08 -0.51,0.509998 -0.48001,1.199996 -0.07,1.669998 l 0.92999,0.900001 z m 7.98001,1.559998 c 0.20001,0 0.41,-0.169998 0.41,-0.419998 0,-0.25 -0.17001,-0.400002 -0.39001,-0.400002 h -1.44 c -0.25998,0 -0.41999,0.150002 -0.41999,0.41 0,0.200001 0.12,0.41 0.41999,0.41 z m 0.01,2.239998 c 0.19,0 0.39999,-0.180001 0.39999,-0.430001 0,-0.239998 -0.19,-0.389999 -0.39001,-0.389999 h -2.66 c -0.20999,0 -0.37998,0.18 -0.37998,0.389999 0,0.270005 0.16999,0.430001 0.38999,0.430001 z m 0,2.240005 c 0.14999,0 0.41998,-0.160004 0.41998,-0.410004 0,-0.260002 -0.19,-0.419998 -0.41998,-0.419998 h -1.46002 c -0.13999,0 -0.38999,0.09 -0.38999,0.430001 0,0.229995 0.15,0.400001 0.41999,0.400001 z m 0,2.239998 c 0.22998,0 0.41998,-0.230003 0.41998,-0.410004 0,-0.279998 -0.19,-0.419998 -0.41998,-0.419998 h -2.63 c -0.30002,0.02 -0.4,0.220001 -0.4,0.400002 -0.01,0.279998 0.17999,0.43 0.37998,0.43 z m 0,2.150002 c 0.17999,0 0.41998,-0.150002 0.39999,-0.440003 0,-0.220001 -0.17001,-0.389999 -0.39999,-0.389999 h -1.44 c -0.25,0 -0.42001,0.169998 -0.42001,0.410003 0,0.279999 0.20001,0.419999 0.39999,0.419999 z m 0,2.229995 c 0.19,0 0.41998,-0.18 0.41998,-0.419998 0,-0.269997 -0.22,-0.389999 -0.41998,-0.389999 h -2.63 c -0.28,0 -0.4,0.199997 -0.4,0.379997 0,0.310005 0.19,0.43 0.4,0.43 z m -0.02,2.25 c 0.25,0 0.42001,-0.199997 0.42001,-0.43 0,-0.239998 -0.14999,-0.399994 -0.39999,-0.399994 h -1.44 C 486,75.550003 485.88,75.769997 485.88,75.93 c 0,0.25 0.13001,0.449997 0.38001,0.449997 h 1.44998 z m 2.25,7.950005 c 2.16001,0 4,-1.669998 4,-3.919998 0,-1.880005 -1.35998,-3.240006 -2.69,-3.670006 V 62.299999 c 0,-0.649997 -0.56998,-1.259998 -1.28,-1.259998 -0.70999,0 -1.25998,0.639999 -1.25998,1.25 V 76.75 C 487.44,77.169998 486.06,78.459999 486.03,80.410004 c 0,2.209999 1.82001,3.919998 3.92999,3.919998 z m 0.15,3.309997 c -10.38999,0 -18.31,-8.099998 -18.31,-18 0,-9.02 7.37002,-17.790001 18.47,-17.790001 9.49002,0 17.93002,7.890004 17.93002,17.880005 0,10.349999 -8.65002,17.909996 -18.09002,17.909996 z" /><text
             id="text168"
             style="font-variant:normal;font-weight:bold;font-size:14px;font-family:Arimo;-inkscape-font-specification:Arimo-Bold;writing-mode:lr-tb;fill:#82b366;fill-opacity:1;fill-rule:nonzero;stroke:none"
             transform="translate(468.71875,119)"><tspan
               id="tspan166"
               y="0"
               x="0 10.110352 18.662109 24.110352 31.896484 35.786133">Core 0</tspan></text>
<path
             id="path170"
             style="fill:#82b366;fill-opacity:1;fill-rule:nonzero;stroke:none"
             d="m 561.79999,99 h -3.37 v -5.480003 h -1.69 V 99 H 553.37 v -5.480003 l -1.68,0.01 v 5.470001 l -3.38,-0.01 v -5.459999 l -1.68,-0.01 V 98.99 L 543.26001,99 v -5.480003 h -1.69 V 99 h -3.37 v -5.470001 l -2.91998,-0.01 c -3.97003,0 -7.62006,-3.25 -7.62006,-7.430001 v -5 H 520 v -3.309997 h 7.65997 V 76.120005 H 520 v -3.300003 h 7.65997 V 71.150004 H 520 v -3.310006 h 7.65997 V 66.180002 H 520 v -3.310001 h 7.65997 v -1.66 H 520 v -3.309997 h 7.65997 v -2.950001 c 0,-3.650002 3.16004,-7.41 7.64002,-7.41 h 2.90002 v -7.540001 l 3.37,0.01 v 7.530003 h 1.69 v -7.540001 l 3.36999,0.01 v 7.530003 h 1.68 v -7.530003 l 3.38,-0.01 v 7.540001 h 1.68 v -7.540001 l 3.36999,0.01 v 7.530003 h 1.69 v -7.540001 l 3.37,0.01 v 7.530003 H 564.75 c 3.82001,0 7.58002,3.129997 7.58002,7.549999 V 57.90001 H 580 v 3.309997 h -7.66998 v 1.66 H 580 v 3.310001 h -7.66998 v 1.659996 l 7.66998,0.01 v 3.300004 h -7.66998 v 1.669998 H 580 v 3.300003 h -7.66998 v 1.659996 H 580 v 3.309997 h -7.66998 v 4.990006 c 0,3.769996 -3.23999,7.449997 -7.66004,7.449997 l -2.86999,-0.01 v 5.480003 z" /><path
             id="path172"
             style="fill:#000000;fill-opacity:0.30199998;fill-rule:nonzero;stroke:none"
             d="m 538.20001,93.529999 -2.91998,-0.01 c -3.97003,0 -7.62006,-3.259995 -7.62006,-7.430001 v -1.899994 c 0,3.21 2.89002,7.269997 7.71003,7.269997 h 2.83001 v 2.07 z m 3.37,-0.01 v -2.059998 l 1.69,0.01 v 2.049996 h -1.69 z m 5.05999,0 v -2.059998 h 1.68 v 2.07 l -1.68,-0.01 z m 5.06,0.01 v -2.07 h 1.68 v 2.059998 l -1.68,0.01 z m 5.04999,-0.01 v -2.059998 h 1.69 v 2.059998 z m 5.06,0 v -2.059998 h 3.03003 c 3.95001,0 7.5,-3.400001 7.5,-7.339996 v 1.959999 c 0,3.779999 -3.23999,7.449997 -7.66004,7.449997 l -2.86999,-0.01 z" /><path
             id="path174"
             style="fill:#ffffff;fill-opacity:1;fill-rule:nonzero;stroke:none"
             d="m 558.35999,59.779999 c -0.51996,0.61 -0.28998,1.260002 -0.02,1.580002 0.45996,0.549999 1.38995,0.569999 1.80999,0.149997 l 0.91999,-0.91 c 0.38,-0.399997 0.48999,-1 0.10998,-1.539997 -0.61999,-0.760002 -1.41998,-0.600002 -1.84997,-0.229999 l -0.97003,0.949997 z m -6.15998,-2.919998 C 552,57.66 552.52002,58.18 553,58.360001 c 0.76001,0.220001 1.40002,-0.100003 1.64001,-0.91 l 0.33997,-1.170002 c 0.13001,-0.559998 -0.19,-1.180001 -0.79999,-1.41 -0.76001,-0.270001 -1.44,0.200001 -1.61999,0.77 z m -6.81,0.829998 c 0.19001,0.68 0.90998,0.900001 1.64997,0.740001 0.69,-0.279998 0.90002,-0.939998 0.77002,-1.439998 l -0.35999,-1.230004 c -0.23004,-0.709999 -1,-1.049999 -1.63,-0.809997 -0.58002,0.189998 -0.98999,0.869999 -0.78003,1.5 z m -5.65002,3.780002 c 0.47003,0.439999 1.37,0.439999 1.79004,-0.03 0.33997,-0.41 0.53998,-1.099999 -0.04,-1.709999 l -0.91998,-0.91 c -0.5,-0.430001 -1.27002,-0.39 -1.69001,0.08 -0.51,0.509998 -0.47998,1.199996 -0.07,1.669998 l 0.92999,0.900001 z m 7.97998,1.559998 c 0.20001,0 0.41003,-0.169998 0.41003,-0.419998 0,-0.25 -0.16998,-0.400002 -0.39001,-0.400002 h -1.44 c -0.26001,0 -0.41999,0.150002 -0.41999,0.41 0,0.200001 0.12,0.41 0.41999,0.41 z m 0.01,2.239998 c 0.19,0 0.40002,-0.180001 0.40002,-0.430001 0,-0.239998 -0.19,-0.389999 -0.39001,-0.389999 h -2.65997 c -0.21002,0 -0.38001,0.18 -0.38001,0.389999 0,0.270005 0.16999,0.430001 0.39002,0.430001 z m 0,2.240005 c 0.15002,0 0.42004,-0.160004 0.42004,-0.410004 0,-0.260002 -0.19,-0.419998 -0.42004,-0.419998 h -1.45996 c -0.14002,0 -0.39002,0.09 -0.39002,0.430001 0,0.229995 0.15003,0.400001 0.41999,0.400001 z m 0,2.239998 c 0.23004,0 0.42004,-0.230003 0.42004,-0.410004 0,-0.279998 -0.19,-0.419998 -0.42004,-0.419998 h -2.63 c -0.29999,0.02 -0.39997,0.220001 -0.39997,0.400002 -0.01,0.279998 0.17999,0.43 0.38001,0.43 z m 0,2.150002 c 0.17999,0 0.42004,-0.150002 0.40002,-0.440003 0,-0.220001 -0.16998,-0.389999 -0.40002,-0.389999 h -1.44 c -0.25,0 -0.41998,0.169998 -0.41998,0.410003 0,0.279999 0.20001,0.419999 0.40002,0.419999 z m 0,2.229995 c 0.19,0 0.42004,-0.18 0.42004,-0.419998 0,-0.269997 -0.22003,-0.389999 -0.42004,-0.389999 h -2.63 c -0.27997,0 -0.39997,0.199997 -0.39997,0.379997 0,0.310005 0.19,0.43 0.39997,0.43 z m -0.02,2.25 c 0.25,0 0.41998,-0.199997 0.41998,-0.43 0,-0.239998 -0.15002,-0.399994 -0.40002,-0.399994 h -1.44 C 546,75.550003 545.88,75.769997 545.88,75.93 c 0,0.25 0.13001,0.449997 0.38001,0.449997 h 1.45001 z m 2.25,7.950005 c 2.15998,0 4,-1.669998 4,-3.919998 0,-1.880005 -1.36004,-3.240006 -2.69,-3.670006 V 62.299999 c 0,-0.649997 -0.57001,-1.259998 -1.28003,-1.259998 -0.70996,0 -1.26001,0.639999 -1.26001,1.25 V 76.75 c -1.28998,0.419998 -2.66998,1.709999 -2.69995,3.660004 0,2.209999 1.81995,3.919998 3.92999,3.919998 z m 0.14997,3.309997 c -10.39002,0 -18.31,-8.099998 -18.31,-18 0,-9.02 7.36999,-17.790001 18.47003,-17.790001 9.48999,0 17.92999,7.890004 17.92999,17.880005 0,10.349999 -8.65002,17.909996 -18.09002,17.909996 z" /><text
             id="text178"
             style="font-variant:normal;font-weight:bold;font-size:14px;font-family:Arimo;-inkscape-font-specification:Arimo-Bold;writing-mode:lr-tb;fill:#82b366;fill-opacity:1;fill-rule:nonzero;stroke:none"
             transform="translate(528.71875,119)"><tspan
               id="tspan176"
               y="0"
               x="0 10.110352 18.662109 24.110352 31.896484 35.786133">Core 1</tspan></text>
<path
             id="path180"
             style="fill:#d5e8d4;fill-opacity:1;fill-rule:nonzero;stroke:none"
             d="m 485,150 h 70 v 50 h -70 z" /><path
             id="path182"
             style="fill:none;stroke:#82b366;stroke-width:1;stroke-linecap:butt;stroke-linejoin:miter;stroke-miterlimit:10;stroke-dasharray:none;stroke-opacity:1"
             d="m 485,150 h 70 v 50 h -70 z" /><path
             id="path184"
             style="fill:none;stroke:#82b366;stroke-width:1;stroke-linecap:butt;stroke-linejoin:miter;stroke-miterlimit:10;stroke-dasharray:none;stroke-opacity:1"
             d="m 485,156 h 70 m -67.20001,-3 h 1.40002 m 2.09998,0 h 1.40002 m 2.09998,0 h 57.40002" /><text
             id="text188"
             style="font-variant:normal;font-weight:bold;font-size:14px;font-family:Arimo;-inkscape-font-specification:Arimo-Bold;writing-mode:lr-tb;fill:#82b366;fill-opacity:1;fill-rule:nonzero;stroke:none"
             transform="translate(494.23438,180)"><tspan
               id="tspan186"
               y="0"
               x="0 7.7861328 15.961914 19.851562 28.40332 36.189453 43.975586">$&gt; bash</tspan></text>
<path
             id="path190"
             style="fill:#ffffff;fill-opacity:1;fill-rule:nonzero;stroke:none"
             d="M 10,38 V 10 h 110 v 28" /><path
             id="path192"
             style="fill:#2072b8;fill-opacity:1;fill-rule:nonzero;stroke:none"
             d="m 9,38 v -6 h 2 v 6 z M 9,26 v -6 h 2 v 6 z M 9,14 V 9 h 3 v 2 h -2 v -1 h 1 v 4 z m 9,-5 h 6 v 2 h -6 z m 12,0 h 6 v 2 h -6 z m 12,0 h 6 v 2 h -6 z m 12,0 h 6 v 2 h -6 z m 12,0 h 6 v 2 h -6 z m 12,0 h 6 v 2 h -6 z m 12,0 h 6 v 2 h -6 z m 12,0 h 6 v 2 h -6 z m 12,0 h 6 v 2 h -6 z m 7,7 v 6 h -2 v -6 z m 0,12 v 6 h -2 v -6 z" /><path
             id="path194"
             style="fill:#2072b8;fill-opacity:1;fill-rule:nonzero;stroke:none"
             d="m 11,38 v 6 H 9 v -6 z m 0,12 v 6 H 9 v -6 z m 0,12 v 6 H 9 v -6 z m 0,12 v 6 H 9 v -6 z m 0,12 v 6 H 9 v -6 z m 0,12 v 6 H 9 v -6 z m 0,12 v 6 H 9 v -6 z m 0,12 v 6 H 9 v -6 z m 0,12 v 6 H 9 v -6 z m 0,12 v 6 H 9 v -6 z m 0,12 v 6 H 9 v -6 z m 0,12 v 6 H 9 v -6 z m 0,12 v 6 H 9 v -6 z m 0,12 v 6 H 9 v -6 z m 0,12 v 6 H 9 v -6 z m 0,12 v 2 h -1 v -1 h 4 v 2 H 9 v -3 z m 9,1 h 6 v 2 h -6 z m 12,0 h 6 v 2 h -6 z m 12,0 h 6 v 2 h -6 z m 12,0 h 6 v 2 h -6 z m 12,0 h 6 v 2 h -6 z m 12,0 h 6 v 2 h -6 z m 12,0 h 6 v 2 h -6 z m 12,0 h 6 v 2 h -6 z m 12,0 h 4 v 1 h -1 v -2 h 2 v 3 h -5 z m 3,-7 v -6 h 2 v 6 z m 0,-12 v -6 h 2 v 6 z m 0,-12 v -6 h 2 v 6 z m 0,-12 v -6 h 2 v 6 z m 0,-12 v -6 h 2 v 6 z m 0,-12 v -6 h 2 v 6 z m 0,-12 v -6 h 2 v 6 z m 0,-12.00001 v -6 h 2 v 6 z m 0,-12 v -6 h 2 v 6 z m 0,-12 V 98 h 2 v 5.99999 z M 119,92 v -6 h 2 v 6 z m 0,-12 v -6 h 2 v 6 z m 0,-12 v -6 h 2 v 6 z m 0,-12 v -6 h 2 v 6 z m 0,-12 v -6 h 2 v 6 z" /><text
             id="text198"
             style="font-variant:normal;font-weight:bold;font-size:14px;font-family:Arimo;-inkscape-font-specification:Arimo-Bold;writing-mode:lr-tb;fill:#0066cc;fill-opacity:1;fill-rule:nonzero;stroke:none"
             transform="translate(45.555176,30)"><tspan
               id="tspan196"
               y="0"
               x="0 10.110352 14 17.889648 25.675781 34.227539">Client</tspan></text>
<path
             id="path200"
             style="fill:#dae8fc;fill-opacity:1;fill-rule:nonzero;stroke:none"
             d="M 50,114.75 C 50,112.13 52.48,110 55.540001,110 H 74.510002 C 77.550003,110.03 80,112.15 80,114.75 v 40.5 c 0,2.60001 -2.449997,4.72 -5.489998,4.75 H 55.540001 C 52.48,160 50,157.86999 50,155.25 Z" /><path
             id="path202"
             style="fill:none;stroke:#6c8ebf;stroke-width:1;stroke-linecap:butt;stroke-linejoin:miter;stroke-miterlimit:10;stroke-dasharray:none;stroke-opacity:1"
             d="M 50,114.75 C 50,112.13 52.48,110 55.540001,110 H 74.510002 C 77.550003,110.03 80,112.15 80,114.75 v 40.5 c 0,2.60001 -2.449997,4.72 -5.489998,4.75 H 55.540001 C 52.48,160 50,157.86999 50,155.25 Z" /><path
             id="path204"
             style="fill:#ffffff;fill-opacity:1;fill-rule:nonzero;stroke:none"
             d="m 51.169998,114.5 v 41 l 27.660004,0.06 V 114.5 Z" /><path
             id="path206"
             style="fill:#ffffff;fill-opacity:1;fill-rule:nonzero;stroke:none"
             d="m 62.280003,156.89999 h 5.379993 c 0.248528,0 0.460655,0.0879 0.636391,0.2636 0.175735,0.17573 0.263603,0.38786 0.263611,0.6364 v 1e-5 c -8e-6,0.24852 -0.08788,0.46065 -0.263611,0.63639 -0.175736,0.17573 -0.387863,0.26361 -0.636391,0.26361 h -5.379993 c -0.248532,0 -0.460663,-0.0879 -0.636403,-0.26361 -0.175739,-0.17574 -0.263603,-0.38787 -0.263599,-0.63639 v -1e-5 c -4e-6,-0.24854 0.08786,-0.46067 0.263599,-0.6364 0.17574,-0.17574 0.387871,-0.2636 0.636403,-0.2636 z" /><path
             id="path208"
             style="fill:#dae8fc;fill-opacity:1;fill-rule:nonzero;stroke:none"
             d="m 42.75,180 c -0.73,0 -1.43,0.25 -1.939999,0.71001 C 40.290001,181.16 40,181.77 40,182.41 v 25.18 c 0,0.64 0.290001,1.25 0.810001,1.69999 C 41.32,209.75 42.02,210 42.75,210 h 44.5 c 0.730003,0 1.43,-0.25 1.940002,-0.71001 C 89.709999,208.84 90,208.23 90,207.59 v -25.18 c 0,-0.64 -0.290001,-1.25 -0.809998,-1.69999 C 88.68,180.25 87.980003,180 87.25,180 Z" /><path
             id="path210"
             style="fill:none;stroke:#6c8ebf;stroke-width:1;stroke-linecap:butt;stroke-linejoin:miter;stroke-miterlimit:10;stroke-dasharray:none;stroke-opacity:1"
             d="m 42.75,180 c -0.73,0 -1.43,0.25 -1.939999,0.71001 C 40.290001,181.16 40,181.77 40,182.41 v 25.18 c 0,0.64 0.290001,1.25 0.810001,1.69999 C 41.32,209.75 42.02,210 42.75,210 h 44.5 c 0.730003,0 1.43,-0.25 1.940002,-0.71001 C 89.709999,208.84 90,208.23 90,207.59 v -25.18 c 0,-0.64 -0.290001,-1.25 -0.809998,-1.69999 C 88.68,180.25 87.980003,180 87.25,180 Z" /><path
             id="path212"
             style="fill:#ffffff;fill-opacity:1;fill-rule:nonzero;stroke:none"
             d="m 43.900002,183.37 h 42.25 v 23.13001 h -42.25 z" /><path
             id="path214"
             style="fill:#ffffff;fill-opacity:1;fill-rule:nonzero;stroke:none"
             d="m 65.290001,181.75 c 0,0.16934 -0.09667,0.25401 -0.290001,0.25401 -0.193336,0 -0.290001,-0.0847 -0.290001,-0.25401 0,-0.16934 0.09667,-0.25401 0.290001,-0.25401 0.193336,0 0.290001,0.0847 0.290001,0.25401 z" /><path
             id="path216"
             style="fill:#dae8fc;fill-opacity:1;fill-rule:nonzero;stroke:none"
             d="m 39.77,77.32 h 50.3 L 100,90 H 30 Z M 41.549999,50 h 46.549999 l 1.380005,27.010002 H 40.169998 Z" /><path
             id="path218"
             style="fill:none;stroke:#6c8ebf;stroke-width:1;stroke-linecap:butt;stroke-linejoin:miter;stroke-miterlimit:10;stroke-dasharray:none;stroke-opacity:1"
             d="m 39.77,77.32 h 50.3 L 100,90 H 30 Z M 41.549999,50 h 46.549999 l 1.380005,27.010002 H 40.169998 Z" /><path
             id="path220"
             style="fill:none;stroke:#6c8ebf;stroke-width:1;stroke-linecap:butt;stroke-linejoin:miter;stroke-miterlimit:10;stroke-dasharray:none;stroke-opacity:1"
             d="m 41.900002,80.480003 h 46.889999 m -50,3.459999 h 53.110001 m -39.66,3.119996 h 24.139995" /><path
             id="path222"
             style="fill:#ffffff;fill-opacity:1;fill-rule:nonzero;stroke:none"
             d="m 43.830002,52.419998 h 42.07 L 87.07,74.589996 H 42.59 Z" /><path
             id="path224"
             style="fill:#eeeeee;fill-opacity:1;fill-rule:nonzero;stroke:none"
             d="m 514.5,221 h 11 v 24.5 H 401 v 11 L 381,240 401,223.5 v 11 h 113.5 z" /><path
             id="path226"
             style="fill:none;stroke:#999999;stroke-width:1;stroke-linecap:butt;stroke-linejoin:miter;stroke-miterlimit:10;stroke-dasharray:none;stroke-opacity:1"
             d="m 514.5,221 h 11 v 24.5 H 401 v 11 L 381,240 401,223.5 v 11 h 113.5 z" /><path
             id="path228"
             style="fill:none;stroke:#999999;stroke-width:1;stroke-linecap:butt;stroke-linejoin:miter;stroke-miterlimit:10;stroke-dasharray:none;stroke-opacity:1"
             d="m 401,245.5 v 11 L 381,240 401,223.5 v 11" /><path
             id="path230"
             style="fill:#eeeeee;fill-opacity:1;fill-rule:nonzero;stroke:none"
             d="m 249,314.5 v -11 l 20,16.5 -20,16.5 v -11 H 111 v 11 L 91,320 111,303.5 v 11 z" /><path
             id="path232"
             style="fill:none;stroke:#999999;stroke-width:1;stroke-linecap:butt;stroke-linejoin:miter;stroke-miterlimit:10;stroke-dasharray:none;stroke-opacity:1"
             d="m 249,314.5 v -11 l 20,16.5 -20,16.5 v -11 H 111 v 11 L 91,320 111,303.5 v 11 z" /><path
             id="path234"
             style="fill:#eeeeee;fill-opacity:1;fill-rule:nonzero;stroke:none"
             d="m 280.51999,201.19 -6.22998,9.06 L 234.5,182.89 V 75.5 H 211 v 11 L 191,70 211,53.5 v 11 h 34.5 v 112.61 z" /><path
             id="path236"
             style="fill:none;stroke:#999999;stroke-width:1;stroke-linecap:butt;stroke-linejoin:miter;stroke-miterlimit:10;stroke-dasharray:none;stroke-opacity:1"
             d="m 280.51999,201.19 -6.22998,9.06 L 234.5,182.89 V 75.5 H 211 v 11 L 191,70 211,53.5 v 11 h 34.5 v 112.61 z" /><path
             id="path238"
             style="fill:none;stroke:#999999;stroke-width:1;stroke-linecap:butt;stroke-linejoin:miter;stroke-miterlimit:10;stroke-dasharray:none;stroke-opacity:1"
             d="m 211,75.5 v 11 L 191,70 211,53.5 v 11" /><path
             id="path240"
             style="fill:#eeeeee;fill-opacity:1;fill-rule:nonzero;stroke:none"
             d="m 269,64.5 v 11 h -58 v 11 L 191,70 211,53.5 v 11 z" /><path
             id="path242"
             style="fill:none;stroke:#999999;stroke-width:1;stroke-linecap:butt;stroke-linejoin:miter;stroke-miterlimit:10;stroke-dasharray:none;stroke-opacity:1"
             d="m 269,64.5 v 11 h -58 v 11 L 191,70 211,53.5 v 11 z" /><path
             id="path244"
             style="fill:#eeeeee;fill-opacity:1;fill-rule:nonzero;stroke:none"
             d="m 235,74 h 9 v 3 h -9 z" /><path
             id="path246"
             style="fill:#dae8fc;fill-opacity:1;fill-rule:nonzero;stroke:none"
             d="m 110,45 h 70 v 50 h -70 z" /><path
             id="path248"
             style="fill:none;stroke:#6c8ebf;stroke-width:1;stroke-linecap:butt;stroke-linejoin:miter;stroke-miterlimit:10;stroke-dasharray:none;stroke-opacity:1"
             d="m 110,45 h 70 v 50 h -70 z" /><path
             id="path250"
             style="fill:none;stroke:#6c8ebf;stroke-width:1;stroke-linecap:butt;stroke-linejoin:miter;stroke-miterlimit:10;stroke-dasharray:none;stroke-opacity:1"
             d="m 110,51 h 70 m -67.2,-3 h 1.4 m 2.1,0 h 1.4 m 2.1,0 h 57.4" /><text
             id="text254"
             style="font-variant:normal;font-weight:bold;font-size:14px;font-family:Arimo;-inkscape-font-specification:Arimo-Bold;writing-mode:lr-tb;fill:#6c8ebf;fill-opacity:1;fill-rule:nonzero;stroke:none"
             transform="translate(125.67187,75)"><tspan
               id="tspan252"
               y="0"
               x="0 13.213867 26.427734">WWW</tspan></text>
</g></g></g></g></svg>